<svg id="audio-headphones" xmlns="http://www.w3.org/2000/svg" width="28.19" height="26.715" viewBox="0 0 28.19 26.715">
  <g id="Group_103" data-name="Group 103" transform="translate(0 0)">
    <path id="Path_179" data-name="Path 179" d="M24.546,22.478H22.538a2.208,2.208,0,0,0-2.222,2.151v11.66a2.224,2.224,0,0,0,2.222,2.168h2.026c.053,0,.124-.018.178-.018.569-.107,3.448-.978,3.448-8.283a15.832,15.832,0,0,0-.569-4.6,1.042,1.042,0,0,0,.036-.231,13.562,13.562,0,0,0-27.124,0,1.037,1.037,0,0,0,.107.462A16.691,16.691,0,0,0,0,30.778c0,2.933.48,5.066,1.4,6.363a2.835,2.835,0,0,0,2.222,1.333H5.67a2.224,2.224,0,0,0,2.222-2.168V24.646a2.239,2.239,0,0,0-2.24-2.168H3.626a.605.605,0,0,0-.178.018,2.059,2.059,0,0,0-.462.142,11.425,11.425,0,0,1,22.2-.053,2.111,2.111,0,0,0-.622-.107ZM3.821,24.611H5.652a.772.772,0,0,1,.089.018v11.66c0,.018-.071.036-.089.036H3.644c-.409-.178-1.511-1.244-1.511-5.563C2.133,25.873,3.5,24.789,3.821,24.611Zm22.236,5.563c0,4.923-1.369,5.99-1.689,6.168H22.538a.457.457,0,0,1-.089-.036V24.646c0-.018.071-.018.089-.018h2.026C24.955,24.611,26.057,25.855,26.057,30.174Z" transform="translate(0 -11.76)" fill="#8c3bfa"/>
  </g>
</svg>
