<svg id="building-house" xmlns="http://www.w3.org/2000/svg" width="40.018" height="41.676" viewBox="0 0 40.018 41.676">
  <g id="Group_107" data-name="Group 107" transform="translate(0)">
    <path id="Path_184" data-name="Path 184" d="M172.609,269.167H170a1.425,1.425,0,0,0-1.421,1.421v2.368A1.425,1.425,0,0,0,170,274.376h2.6a1.425,1.425,0,0,0,1.421-1.421v-2.368A1.425,1.425,0,0,0,172.609,269.167Z" transform="translate(-155.323 -246.672)" fill="#8c3bfa"/>
    <path id="Path_185" data-name="Path 185" d="M272.959,272.956v-2.368a1.425,1.425,0,0,0-1.421-1.421h-2.368a1.425,1.425,0,0,0-1.421,1.421v2.368a1.425,1.425,0,0,0,1.421,1.421h2.368A1.425,1.425,0,0,0,272.959,272.956Z" transform="translate(-246.202 -246.672)" fill="#8c3bfa"/>
    <path id="Path_186" data-name="Path 186" d="M172.609,175.667H170a1.425,1.425,0,0,0-1.421,1.421v2.368A1.425,1.425,0,0,0,170,180.876h2.6a1.425,1.425,0,0,0,1.421-1.421v-2.368A1.425,1.425,0,0,0,172.609,175.667Z" transform="translate(-155.323 -160.986)" fill="#8c3bfa"/>
    <path id="Path_187" data-name="Path 187" d="M269.171,180.876h2.368a1.425,1.425,0,0,0,1.421-1.421v-2.368a1.425,1.425,0,0,0-1.421-1.421h-2.368a1.425,1.425,0,0,0-1.421,1.421v2.368A1.425,1.425,0,0,0,269.171,180.876Z" transform="translate(-246.202 -160.986)" fill="#8c3bfa"/>
    <path id="Path_188" data-name="Path 188" d="M172.609,85H170a1.425,1.425,0,0,0-1.421,1.421v2.368A1.425,1.425,0,0,0,170,90.209h2.6a1.425,1.425,0,0,0,1.421-1.421V86.421A1.425,1.425,0,0,0,172.609,85Z" transform="translate(-155.323 -77.896)" fill="#8c3bfa"/>
    <path id="Path_189" data-name="Path 189" d="M269.171,90.209h2.368a1.425,1.425,0,0,0,1.421-1.421V86.421A1.425,1.425,0,0,0,271.539,85h-2.368a1.425,1.425,0,0,0-1.421,1.421v2.368A1.425,1.425,0,0,0,269.171,90.209Z" transform="translate(-246.202 -77.896)" fill="#8c3bfa"/>
    <path id="Path_190" data-name="Path 190" d="M43.067,7.6V1.421A1.425,1.425,0,0,0,41.646,0H18.2a1.425,1.425,0,0,0-1.421,1.421V7.6l-6.464,6.678a1.4,1.4,0,0,0-.4.995V40.255a1.425,1.425,0,0,0,1.421,1.421H24.36a1.4,1.4,0,0,0,1.208-.687,1.433,1.433,0,0,0,.687-1.208V34.335H33.6v5.446a1.45,1.45,0,0,0,1.018,1.373,1.393,1.393,0,0,0,1.113.521H48.513a1.425,1.425,0,0,0,1.421-1.421V15.273a1.4,1.4,0,0,0-.4-.995Zm-30.31,8.24,4.026-4.168v27.16H12.758ZM24.834,31.494a1.425,1.425,0,0,0-1.421,1.421v5.92H19.625V2.842h20.6V38.834H36.437v-5.92a1.425,1.425,0,0,0-1.421-1.421H24.834Zm22.259,7.341H43.067V11.674l4.026,4.168Z" transform="translate(-9.916 0)" fill="#8c3bfa"/>
  </g>
</svg>
