<svg xmlns="http://www.w3.org/2000/svg" width="24" height="21.6" viewBox="0 0 24 21.6">
  <g id="ic_local_see_24px" transform="translate(-2 -2)">
    <circle id="Ellipse_17" data-name="Ellipse 17" cx="3.2" cy="3.2" r="3.2" transform="translate(10.8 10.91)" fill="#e4e4e4"/>
    <path id="Path_95" data-name="Path 95" d="M10.4,2,8.2,4.4H4.4A2.407,2.407,0,0,0,2,6.8V21.2a2.407,2.407,0,0,0,2.4,2.4H23.6A2.407,2.407,0,0,0,26,21.2V6.8a2.407,2.407,0,0,0-2.4-2.4H19.8L17.6,2ZM14,20a6,6,0,1,1,6-6A6,6,0,0,1,14,20Z" transform="translate(0 0)" fill="#e4e4e4"/>
  </g>
</svg>
