<svg xmlns="http://www.w3.org/2000/svg" width="36" height="36" viewBox="0 0 36 36">
  <g id="Group_78" data-name="Group 78" transform="translate(-376 -200)">
    <path id="Path_1147" data-name="Path 1147" d="M36.147,10.6,32.752,7.2l-6.7,6.7L22.241,10.1l6.7-6.7L25.551,0l-6.7,6.7-4.3-4.3L11.293,5.65l19.2,19.2L33.746,21.6l-4.3-4.3,6.7-6.7Z" transform="translate(375.853 200)" fill="#7626e2"/>
    <path id="Path_1148" data-name="Path 1148" d="M29.375,23.834,12.728,7.186c-3.594,4.31-7.671,10.969-4.854,16.7L2.913,28.846a3.009,3.009,0,0,0,0,4.243l.557.557a3.011,3.011,0,0,0,4.244,0l4.961-4.961c5.73,2.818,12.389-1.259,16.7-4.853Z" transform="translate(373.962 201.48)" fill="#7626e2"/>
  </g>
</svg>
