<svg xmlns="http://www.w3.org/2000/svg" width="40.244" height="40.042" viewBox="0 0 40.244 40.042">
  <g  data-name="Group 1" transform="translate(-488.445 -893.681)">
    <path id="Path_6" data-name="Path 6" d="M523.438,915.15v3.843a12.828,12.828,0,0,1,18.943,2.615V908.272Z" transform="translate(-13.692 -5.709)" fill="#7626e2"/>
    <path id="Path_7" data-name="Path 7" d="M488.445,932.032l18.943,6.823v-2.9a12.819,12.819,0,0,1,0-14.327V915.15l-18.943-6.878Z" transform="translate(0 -5.709)" fill="#7626e2"/>
    <path id="Path_8" data-name="Path 8" d="M535.631,900.493l-18.913-6.812-7.441,2.68,18.86,6.853Z" transform="translate(-8.151)" fill="#7626e2"/>
    <path id="Path_9" data-name="Path 9" d="M517.309,906.994l-18.874-6.859-8,2.884,18.913,6.866Z" transform="translate(-0.777 -2.525)" fill="#7626e2"/>
    <path id="Path_10" data-name="Path 10" d="M530.228,924.491a10.644,10.644,0,1,0,10.644,10.644A10.656,10.656,0,0,0,530.228,924.491Zm1.433,15.022-1.667-1.667,1.43-1.43h-6.96v-2.358h6.96l-1.4-1.4L531.7,931l4.242,4.242Z" transform="translate(-12.184 -12.055)" fill="#7626e2"/>
  </g>
</svg>
