<svg xmlns="http://www.w3.org/2000/svg" viewBox="0 0 20 20" width="20" height="20">
	<defs>
		<clipPath clipPathUnits="userSpaceOnUse" id="cp1">
			<path d="M-538 -947L102 -947L102 189L-538 189Z" />
		</clipPath>
	</defs>
	<style>
		tspan { white-space:pre }
		.shp0 { fill: #ffffff } 
	</style>
	<g id="Dashboard – vendor on the way" clip-path="url(#cp1)">
		<path id="ic_local_phone_24px" class="shp0" d="M4.02 8.66C5.62 11.8 8.2 14.37 11.34 15.98L13.79 13.53C14.09 13.23 14.53 13.13 14.92 13.27C16.17 13.68 17.51 13.9 18.89 13.9C19.5 13.9 20 14.4 20 15.01L20 18.89C20 19.5 19.5 20 18.89 20C8.45 20 0 11.54 0 1.11C0 0.5 0.5 0 1.11 0L5 0C5.61 0 6.11 0.5 6.11 1.11C6.11 2.5 6.33 3.83 6.74 5.08C6.87 5.47 6.78 5.9 6.47 6.21L4.02 8.66Z" />
	</g>
</svg>