<svg xmlns="http://www.w3.org/2000/svg" width="40" height="39.999" viewBox="0 0 40 39.999">
  <path id="key2" d="M39.147,12.275,35.2,8.326,31.674,4.8,27.724.855a3.175,3.175,0,0,0-3.834-.38l-10.8,7.2a2.9,2.9,0,0,0-.959,3.609l2.754,5.506c.084.169.181.347.289.534L1.248,31.25,0,40H7.5V37.5h5v-5h5v-5h5V24.719c.25.149.49.283.711.392l5.506,2.754a2.9,2.9,0,0,0,3.609-.959l7.2-10.8a3.172,3.172,0,0,0-.38-3.833ZM5.884,33.384,4.117,31.616,16.288,19.445l1.768,1.768Zm29.938-16.83-1.768,1.768a1.253,1.253,0,0,1-1.768,0L21.681,7.715a1.253,1.253,0,0,1,0-1.768L23.448,4.18a1.253,1.253,0,0,1,1.768,0L35.822,14.786a1.253,1.253,0,0,1,0,1.768Z" transform="translate(0.002 -0.001)" fill="#8c3bfa"/>
</svg>
