<svg xmlns="http://www.w3.org/2000/svg" width="178.545" height="46.342" viewBox="0 0 178.545 46.342">
  <g id="Group_111" data-name="Group 111" transform="translate(-60.849 -67.839)">
    <g id="Group_6" data-name="Group 6" transform="translate(10.606 -18.324)">
      <g id="Group_5" data-name="Group 5" transform="translate(97.675 89.518)">
        <g id="Group_2" data-name="Group 2" transform="translate(0 0)">
          <path id="Path_12" data-name="Path 12" d="M121.971,461.757a20.261,20.261,0,0,1-8.493,2.454c-6.447,0-10.314-3.507-10.314-10.314v-9.8H98.47v-6.55h4.693v-8.329h8.252v8.329h7.633v6.55h-7.633v8.974c0,2.682,1.289,3.765,3.455,3.765a8.428,8.428,0,0,0,3.765-1.032Z" transform="translate(-98.47 -429.218)" fill="#e5edfd"/>
        </g>
        <g id="Group_3" data-name="Group 3" transform="translate(20.388 7.556)">
          <path id="Path_13" data-name="Path 13" d="M176.085,473.923h-8.252V471.86a11.661,11.661,0,0,1-8.045,2.836c-6.859,0-12.635-5.519-12.635-13.719,0-8.148,5.776-13.719,12.635-13.719a11.658,11.658,0,0,1,8.045,2.837v-2.063h8.252Zm-8.252-12.945a6.459,6.459,0,0,0-6.343-6.7c-3.61,0-6.24,2.734-6.24,6.7,0,4.023,2.63,6.7,6.24,6.7A6.427,6.427,0,0,0,167.833,460.978Z" transform="translate(-147.152 -447.259)" fill="#e5edfd"/>
          <path id="Path_14" data-name="Path 14" d="M249.474,460.978c0,8.2-5.776,13.719-12.635,13.719a11.661,11.661,0,0,1-8.046-2.836v10.83h-8.252V448.033h8.252V450.1a11.658,11.658,0,0,1,8.046-2.837C243.7,447.259,249.474,452.829,249.474,460.978Zm-8.1,0c0-3.971-2.63-6.7-6.24-6.7a6.715,6.715,0,0,0,0,13.409C238.747,467.682,241.376,465,241.376,460.978Z" transform="translate(-189.805 -447.259)" fill="#e5edfd"/>
          <path id="Path_15" data-name="Path 15" d="M295.389,465.516c.361,2.217,2.373,3.043,4.591,3.043,2.166,0,3.352-.928,3.352-2.063,0-.877-.67-1.547-2.578-1.908l-5.261-1.031c-4.8-.877-7.53-3.456-7.53-7.53,0-5.312,4.591-8.767,11.14-8.767,6.446,0,10.727,2.94,11.758,7.427l-7.53,1.5c-.258-1.6-1.805-3.042-4.332-3.042-2.218,0-2.94,1.083-2.94,2.011,0,.723.31,1.444,1.96,1.805l6.086,1.237c4.9,1.031,7.168,3.972,7.168,7.788,0,5.725-4.951,8.716-11.759,8.716-6.086,0-11.294-2.218-12.171-7.529Z" transform="translate(-228.63 -447.259)" fill="#e5edfd"/>
          <path id="Path_16" data-name="Path 16" d="M354.348,483.692h-8.922l4.178-9.644-10.727-25.064h8.87l6.137,15.111,6.55-15.111H369.3Z" transform="translate(-258.581 -448.261)" fill="#e5edfd"/>
        </g>
        <circle id="Ellipse_5" data-name="Ellipse 5" cx="2.786" cy="2.786" r="2.786" transform="translate(123.115 30.449)" fill="#e5edfd"/>
      </g>
      <path id="Path_17" data-name="Path 17" d="M209.322,302.8a20.772,20.772,0,1,0,20.772,20.772A20.772,20.772,0,0,0,209.322,302.8Zm9.926,33.409a15.328,15.328,0,0,1-5.795,1.464c-5.2,0-8.313-2.826-8.313-8.313v-7.9h-3.632a.224.224,0,0,1-.207-.139l-1.973-4.831a.224.224,0,0,1,.207-.308h5.605v-3.9a2.81,2.81,0,0,1,2.81-2.811h3.466a.374.374,0,0,1,.374.374v6.339h4.4a.224.224,0,0,1,.207.139l1.978,4.831a.224.224,0,0,1-.207.309h-6.379V328.7c0,2.161,1.039,3.034,2.785,3.034a6.778,6.778,0,0,0,2.574-.6.223.223,0,0,1,.3.117l1.91,4.676A.223.223,0,0,1,219.248,336.21Z" transform="translate(-138.307 -216.638)" fill="#e5edfd"/>
    </g>
  </g>
</svg>
