<svg xmlns="http://www.w3.org/2000/svg" width="313.06" height="233.057" viewBox="0 0 313.06 233.057">
  <g id="Group_110" data-name="Group 110" transform="translate(-163 -335)">
    <path id="Path_11" data-name="Path 11" d="M250.091,302.8a61.542,61.542,0,1,0,61.542,61.542A61.541,61.541,0,0,0,250.091,302.8ZM279.5,401.783c-4.865,2.19-11.485,4.336-17.168,4.336-15.394,0-24.628-8.373-24.628-24.628v-23.4H226.942a.664.664,0,0,1-.614-.412l-5.846-14.313a.663.663,0,0,1,.614-.914H237.7V330.893a8.327,8.327,0,0,1,8.326-8.327H256.3a1.11,1.11,0,0,1,1.109,1.109v18.779h13.039a.663.663,0,0,1,.613.412l5.861,14.312a.663.663,0,0,1-.613.915h-18.9v21.428c0,6.4,3.078,8.989,8.25,8.989a20.081,20.081,0,0,0,7.627-1.783.661.661,0,0,1,.89.347l5.659,13.853A.659.659,0,0,1,279.5,401.783Z" transform="translate(64.53 32.199)" fill="#8c3bfa"/>
    <g id="Group_4" data-name="Group 4" transform="translate(64.53 36.199)">
      <g id="Group_2" data-name="Group 2">
        <path id="Path_12" data-name="Path 12" d="M154.583,506.912c-4.8,2.586-13.261,5.859-20.279,5.859-15.394,0-24.628-8.374-24.628-24.628v-23.4H98.47V449.106h11.206V429.218h19.7v19.888H147.6v15.639H129.379v21.428c0,6.4,3.078,8.989,8.25,8.989a20.125,20.125,0,0,0,8.989-2.463Z" fill="#8c3bfa"/>
      </g>
      <g id="Group_3" data-name="Group 3">
        <path id="Path_13" data-name="Path 13" d="M216.235,510.924h-19.7V506c-4.8,4.309-11.206,6.772-19.21,6.772-16.378,0-30.17-13.177-30.17-32.756,0-19.456,13.792-32.756,30.17-32.756,8,0,14.407,2.463,19.21,6.774v-4.927h19.7Zm-19.7-30.909c0-9.481-7.142-16.009-15.146-16.009-8.62,0-14.9,6.528-14.9,16.009,0,9.6,6.28,16.009,14.9,16.009C189.39,496.024,196.532,489.62,196.532,480.015Z" fill="#8c3bfa"/>
        <path id="Path_14" data-name="Path 14" d="M289.624,480.015c0,19.579-13.792,32.756-30.169,32.756-8,0-14.408-2.463-19.211-6.772v25.859h-19.7V449.106h19.7v4.927c4.8-4.311,11.206-6.774,19.211-6.774C275.832,447.259,289.624,460.559,289.624,480.015Zm-19.334,0c0-9.481-6.279-16.009-14.9-16.009-8.005,0-15.147,6.528-15.147,16.009,0,9.6,7.142,16.009,15.147,16.009C264.011,496.024,270.29,489.62,270.29,480.015Z" fill="#8c3bfa"/>
        <path id="Path_15" data-name="Path 15" d="M306.553,490.852c.862,5.294,5.665,7.266,10.961,7.266,5.171,0,8-2.217,8-4.927,0-2.093-1.6-3.693-6.156-4.556L306.8,486.173c-11.453-2.094-17.98-8.252-17.98-17.98,0-12.684,10.961-20.934,26.6-20.934,15.392,0,25.614,7.019,28.076,17.733l-17.979,3.57c-.616-3.817-4.31-7.264-10.344-7.264-5.3,0-7.019,2.586-7.019,4.8,0,1.725.74,3.448,4.68,4.311l14.531,2.954c11.7,2.463,17.115,9.483,17.115,18.6,0,13.669-11.821,20.811-28.076,20.811-14.531,0-26.968-5.295-29.06-17.978Z" fill="#8c3bfa"/>
        <path id="Path_16" data-name="Path 16" d="M375.818,531.858h-21.3l9.975-23.028-25.613-59.847h21.179l14.654,36.08,15.639-36.08H411.53Z" fill="#8c3bfa"/>
      </g>
      <circle id="Ellipse_5" data-name="Ellipse 5" cx="6.653" cy="6.653" r="6.653" transform="translate(392.433 501.922)" fill="#8c3bfa"/>
    </g>
  </g>
</svg>
