<svg id="messenger-user-avatar" xmlns="http://www.w3.org/2000/svg" width="22.1" height="25.76" viewBox="0 0 22.1 25.76">
  <g id="Group_45" data-name="Group 45">
    <path id="Path_75" data-name="Path 75" d="M48.592,24.716a1.113,1.113,0,0,0,1.165,1.044h19.77a1.113,1.113,0,0,0,1.165-1.044c0-5.775-2.913-10.732-7.011-12.715A6.384,6.384,0,0,0,66.963,6.54c0-3.6-3.282-6.54-7.3-6.54S52.34,2.922,52.34,6.54A6.406,6.406,0,0,0,55.622,12C51.5,13.984,48.592,18.942,48.592,24.716ZM59.642,2.087A4.743,4.743,0,0,1,64.613,6.54a5,5,0,0,1-9.943,0A4.743,4.743,0,0,1,59.642,2.087Zm0,11.045c4.544,0,8.273,4.644,8.681,10.541H50.961C51.369,17.776,55.1,13.132,59.642,13.132Z" transform="translate(-48.592)" fill="#8c3bfa"/>
  </g>
</svg>
