<svg xmlns="http://www.w3.org/2000/svg" viewBox="0 0 83 22" width="83" height="22">
	<style>
		tspan { white-space:pre }
		.shp0 { fill: #139ad6 } 
		.shp1 { fill: #263b80 } 
		.shp2 { fill: #232c65 } 
	</style>
	<g id="Folder 2">
		<path id="Path 1288" fill-rule="evenodd" class="shp0" d="M67.77 7.43C68.29 8.08 68.55 9.12 68.29 10.29C67.9 13.16 66.21 14.59 63.22 14.59L61.78 14.59C61.39 14.59 61.13 14.85 61.13 15.11L60.61 18.36C60.61 18.62 60.48 18.75 60.22 18.75L57.88 18.75C57.62 18.75 57.49 18.62 57.49 18.36L59.31 6.91C59.44 6.65 59.7 6.39 59.96 6.39L64.39 6.39C65.82 6.39 66.99 6.78 67.77 7.43ZM64.65 9.51C64.26 8.99 63.48 8.99 62.69 8.99L62.43 8.99C62.17 8.99 62.04 9.12 62.04 9.25L61.52 12.25L62.3 12.25C63.48 12.25 64.65 12.25 64.91 10.68C64.91 10.03 64.91 9.64 64.65 9.51Z" />
		<path id="Path 1289" fill-rule="evenodd" class="shp1" d="M35.88 7.43C36.4 8.08 36.66 9.12 36.4 10.29C36.01 13.16 34.32 14.59 31.33 14.59L29.89 14.59C29.5 14.59 29.24 14.85 29.24 15.11L28.72 18.23C28.59 18.49 28.33 18.75 28.07 18.75L25.99 18.75C25.73 18.75 25.6 18.62 25.6 18.36L27.42 6.91C27.55 6.65 27.81 6.39 28.07 6.39L32.5 6.39C34.06 6.39 35.1 6.78 35.88 7.43ZM32.89 9.51C32.5 8.99 31.72 8.99 30.94 8.99L30.68 8.99C30.42 8.99 30.29 9.12 30.29 9.25L29.76 12.25L30.42 12.25C31.59 12.25 32.76 12.25 33.02 10.68C33.15 10.03 33.02 9.64 32.89 9.51Z" />
		<path id="Path 1290" fill-rule="evenodd" class="shp1" d="M46.42 10.94L45.25 18.23C45.12 18.49 44.86 18.75 44.6 18.75L42.65 18.75C42.39 18.75 42.26 18.62 42.26 18.36L42.39 17.71C42.39 17.71 41.35 18.88 39.4 18.88C38.22 18.88 37.31 18.62 36.66 17.84C36.01 17.06 35.62 15.89 35.88 14.59C36.27 12.12 38.35 10.29 40.7 10.29C41.74 10.29 42.65 10.55 43.17 11.2L43.3 11.47L43.43 10.81C43.43 10.68 43.69 10.55 43.82 10.55L45.9 10.55C46.03 10.55 46.29 10.81 46.42 10.94ZM42.39 13.16C42 12.9 41.61 12.64 40.96 12.64C39.79 12.64 38.75 13.55 38.62 14.72C38.62 15.37 38.75 15.89 39.01 16.28C39.27 16.54 39.79 16.8 40.44 16.8C41.74 16.8 42.65 15.89 42.91 14.72C42.91 14.2 42.78 13.55 42.39 13.16Z" />
		<path id="Path 1291" fill-rule="evenodd" class="shp0" d="M78.18 10.94L77.01 18.23C76.88 18.49 76.62 18.75 76.36 18.75L74.41 18.75C74.15 18.75 74.02 18.62 74.02 18.36L74.15 17.71C74.15 17.71 73.11 18.88 71.16 18.88C69.98 18.88 69.07 18.62 68.42 17.84C67.77 17.06 67.38 15.89 67.64 14.59C68.03 12.12 70.11 10.29 72.46 10.29C73.5 10.29 74.41 10.55 74.93 11.2L75.06 11.47L75.19 10.81C75.19 10.68 75.45 10.55 75.58 10.55L77.66 10.55C77.92 10.55 78.05 10.81 78.18 10.94ZM74.15 13.16C73.76 12.9 73.37 12.64 72.72 12.64C71.55 12.64 70.5 13.55 70.37 14.72C70.37 15.37 70.5 15.89 70.76 16.28C71.02 16.54 71.55 16.8 72.2 16.8C73.5 16.8 74.41 15.89 74.67 14.72C74.8 14.2 74.67 13.55 74.15 13.16Z" />
		<path id="Path 1292" class="shp1" d="M57.23 10.55L55.02 10.55C54.76 10.55 54.62 10.68 54.49 10.81L51.63 15.24L50.33 11.07C50.2 10.81 50.07 10.68 49.68 10.68L47.6 10.68C47.34 10.68 47.21 10.94 47.21 11.2L49.55 18.1L47.34 21.23C47.21 21.49 47.34 21.88 47.6 21.88L49.68 21.88C49.94 21.88 50.07 21.75 50.2 21.62L57.36 11.33C57.75 10.94 57.49 10.55 57.23 10.55Z" />
		<path id="Path 1293" class="shp0" d="M80.14 6.78L78.31 18.49C78.31 18.75 78.44 18.88 78.7 18.88L80.53 18.88C80.79 18.88 81.05 18.62 81.18 18.36L83 6.91C83 6.65 82.87 6.52 82.61 6.52L80.53 6.52C80.4 6.39 80.27 6.52 80.14 6.78Z" />
		<path id="Path 1294" class="shp1" d="M15.97 2.48C15.06 1.44 13.36 0.92 11.02 0.92L4.51 0.92C4.12 0.92 3.73 1.31 3.6 1.7L1 18.75C1 19.14 1.26 19.4 1.52 19.4L5.55 19.4L6.6 13.03L6.6 13.29C6.73 12.9 7.12 12.51 7.51 12.51L9.46 12.51C13.23 12.51 16.1 10.94 17.01 6.65C17.01 6.52 17.01 6.39 17.01 6.26C16.88 6.26 16.88 6.26 17.01 6.26C17.14 4.57 16.88 3.53 15.97 2.48Z" />
		<path id="Path 1295" class="shp0" d="M16.88 6.26L16.88 6.26C16.88 6.39 16.88 6.52 16.88 6.65C15.97 11.07 13.1 12.51 9.33 12.51L7.38 12.51C6.99 12.51 6.6 12.9 6.47 13.29L5.16 21.23C5.16 21.49 5.29 21.75 5.69 21.75L9.07 21.75C9.46 21.75 9.85 21.49 9.85 21.1L9.85 20.97L10.5 16.93L10.5 16.67C10.5 16.28 10.89 16.02 11.28 16.02L11.8 16.02C15.06 16.02 17.66 14.72 18.31 10.81C18.57 9.25 18.44 7.82 17.66 6.91C17.53 6.65 17.27 6.39 16.88 6.26Z" />
		<path id="Path 1296" class="shp2" d="M15.97 5.87C15.84 5.87 15.71 5.74 15.58 5.74C15.45 5.74 15.32 5.74 15.19 5.61C14.67 5.48 14.15 5.48 13.5 5.48L8.42 5.48C8.29 5.48 8.16 5.48 8.03 5.61C7.77 5.74 7.64 6 7.64 6.26L6.6 13.03L6.6 13.29C6.73 12.9 7.12 12.51 7.51 12.51L9.46 12.51C13.23 12.51 16.1 10.94 17.01 6.65C17.01 6.52 17.01 6.39 17.14 6.26C16.88 6.13 16.75 6 16.49 6C16.1 5.87 16.1 5.87 15.97 5.87Z" />
	</g>
</svg>