<svg id="text-line-form" xmlns="http://www.w3.org/2000/svg" width="23.172" height="28.49" viewBox="0 0 23.172 28.49">
  <g id="Group_19" data-name="Group 19" transform="translate(0)">
    <path id="Path_29" data-name="Path 29" d="M62.839,1.14A1.143,1.143,0,0,0,61.7,0H40.807a1.143,1.143,0,0,0-1.14,1.14V27.351a1.143,1.143,0,0,0,1.14,1.14H61.7a1.143,1.143,0,0,0,1.14-1.14V1.14ZM41.946,2.279H60.56V26.211H41.946Z" transform="translate(-39.667)" fill="#8c3bfa"/>
    <path id="Path_30" data-name="Path 30" d="M130.4,99.167H120.14a1.14,1.14,0,0,0,0,2.279H130.4a1.14,1.14,0,0,0,0-2.279Z" transform="translate(-113.682 -92.519)" fill="#8c3bfa"/>
    <path id="Path_31" data-name="Path 31" d="M130.4,189.833H120.14a1.14,1.14,0,0,0,0,2.279H130.4a1.14,1.14,0,0,0,0-2.279Z" transform="translate(-113.682 -177.107)" fill="#8c3bfa"/>
    <path id="Path_32" data-name="Path 32" d="M130.4,286.167H120.14a1.14,1.14,0,0,0,0,2.279H130.4a1.14,1.14,0,1,0,0-2.279Z" transform="translate(-113.682 -266.983)" fill="#8c3bfa"/>
  </g>
</svg>
