<svg xmlns="http://www.w3.org/2000/svg" viewBox="0 0 130 30" width="130" height="30">
	<style>
		tspan { white-space:pre }
		.shp0 { fill: #ffb600 } 
		.shp1 { fill: #f7981d } 
		.shp2 { fill: #ff8500 } 
		.shp3 { fill: #ff5050 } 
		.shp4 { fill: #e52836 } 
		.shp5 { fill: #cb2026 } 
		.shp6 { fill: #ffffff } 
		.shp7 { fill: #dce5e5 } 
		.shp8 { fill: #2394bc } 
		.shp9 { fill: #efc75e } 
	</style>
	<g id="Folder 1">
		<path id="Path 1297" class="shp0" d="M129.67 15.2C129.67 23.34 123.09 30 114.87 30C106.72 30 100.07 23.34 100.07 15.2L100.07 15.2C100.07 7.06 106.64 0.4 114.79 0.4C123.09 0.4 129.67 7.06 129.67 15.2L129.67 15.2Z" />
		<path id="Path 1298" class="shp1" d="M114.87 0.4C123.01 0.4 129.67 7.06 129.67 15.2L129.67 15.2C129.67 23.34 123.09 30 114.87 30C106.72 30 100.07 23.34 100.07 15.2" />
		<path id="Path 1299" class="shp2" d="M114.87 0.4C123.01 0.4 129.67 7.06 129.67 15.2L129.67 15.2C129.67 23.34 123.09 30 114.87 30" />
		<path id="Path 1300" class="shp3" d="M94.98 0.4C86.91 0.48 80.33 7.06 80.33 15.2C80.33 23.34 86.91 30 95.13 30C98.97 30 102.41 28.51 105.08 26.16L105.08 26.16L105.08 26.16C105.63 25.69 106.1 25.14 106.57 24.6L103.51 24.6C103.12 24.13 102.73 23.58 102.41 23.11L107.66 23.11C107.98 22.64 108.29 22.09 108.52 21.54L101.55 21.54C101.32 21.07 101.08 20.52 100.93 19.98L109.07 19.98C109.54 18.49 109.85 16.92 109.85 15.28C109.85 14.18 109.7 13.16 109.54 12.15L100.46 12.15C100.54 11.6 100.69 11.13 100.85 10.58L108.99 10.58C108.84 10.03 108.6 9.48 108.37 9.01L101.48 9.01C101.71 8.47 102.02 8 102.34 7.45L107.58 7.45C107.27 6.9 106.88 6.35 106.41 5.88L103.51 5.88C103.98 5.33 104.45 4.86 105 4.39C102.41 1.97 98.89 0.56 95.05 0.56C95.05 0.4 95.05 0.4 94.98 0.4Z" />
		<path id="Path 1301" class="shp4" d="M80.33 15.2C80.33 23.34 86.91 30 95.13 30C98.97 30 102.41 28.51 105.08 26.16L105.08 26.16L105.08 26.16C105.63 25.69 106.1 25.14 106.57 24.6L103.51 24.6C103.12 24.13 102.73 23.58 102.41 23.11L107.66 23.11C107.98 22.64 108.29 22.09 108.52 21.54L101.55 21.54C101.32 21.07 101.08 20.52 100.93 19.98L109.07 19.98C109.54 18.49 109.85 16.92 109.85 15.28C109.85 14.18 109.7 13.16 109.54 12.15L100.46 12.15C100.54 11.6 100.69 11.13 100.85 10.58L108.99 10.58C108.84 10.03 108.6 9.48 108.37 9.01L101.48 9.01C101.71 8.47 102.02 8 102.34 7.45L107.58 7.45C107.27 6.9 106.88 6.35 106.41 5.88L103.51 5.88C103.98 5.33 104.45 4.86 105 4.39C102.41 1.97 98.89 0.56 95.05 0.56L94.98 0.56" />
		<path id="Path 1302" class="shp5" d="M95.13 30C98.97 30 102.41 28.51 105.08 26.16L105.08 26.16L105.08 26.16C105.63 25.69 106.1 25.14 106.57 24.6L103.51 24.6C103.12 24.13 102.73 23.58 102.41 23.11L107.66 23.11C107.98 22.64 108.29 22.09 108.52 21.54L101.55 21.54C101.32 21.07 101.08 20.52 100.93 19.98L109.07 19.98C109.54 18.49 109.85 16.92 109.85 15.28C109.85 14.18 109.7 13.16 109.54 12.15L100.46 12.15C100.54 11.6 100.69 11.13 100.85 10.58L108.99 10.58C108.84 10.03 108.6 9.48 108.37 9.01L101.48 9.01C101.71 8.47 102.02 8 102.34 7.45L107.58 7.45C107.27 6.9 106.88 6.35 106.41 5.88L103.51 5.88C103.98 5.33 104.45 4.86 105 4.39C102.41 1.97 98.89 0.56 95.05 0.56L94.98 0.56" />
		<path id="Path 1303" class="shp6" d="M100.38 18.96L100.61 17.63C100.54 17.63 100.38 17.71 100.22 17.71C99.67 17.71 99.6 17.39 99.67 17.24L100.14 14.5L101.01 14.5L101.24 13.01L100.46 13.01L100.61 12.07L99.05 12.07C99.05 12.07 98.11 17.24 98.11 17.86C98.11 18.8 98.66 19.19 99.36 19.19C99.83 19.19 100.22 19.04 100.38 18.96Z" />
		<path id="Path 1304" fill-rule="evenodd" class="shp6" d="M103.75 12.93C105.47 12.93 106.02 14.18 106.02 15.2C106.02 15.59 105.78 16.61 105.78 16.61L102.57 16.61C102.57 16.61 102.26 17.86 103.98 17.86C104.76 17.86 105.63 17.47 105.63 17.47L105.31 18.96C105.31 18.96 104.84 19.19 103.67 19.19C102.41 19.19 100.93 18.65 100.93 16.45C100.93 14.5 102.1 12.77 103.75 12.93ZM102.65 15.28L104.37 15.28C104.37 15.2 104.53 14.18 103.67 14.18C102.81 14.18 102.65 15.2 102.65 15.28Z" />
		<path id="Path 1305" class="shp6" d="M113.61 18.96L113.93 17.24C113.93 17.24 113.14 17.63 112.6 17.63C111.5 17.63 111.03 16.77 111.03 15.83C111.03 13.95 111.97 12.93 113.06 12.93C113.85 12.93 114.47 13.4 114.47 13.4L114.71 11.75C114.71 11.75 113.77 11.36 112.91 11.36C111.11 11.36 109.31 12.93 109.31 15.9C109.31 17.86 110.25 19.19 112.13 19.19C112.75 19.19 113.61 18.96 113.61 18.96Z" />
		<path id="Path 1306" fill-rule="evenodd" class="shp6" d="M93.88 14.73L93.25 19.04L91.84 19.04L91.92 18.41C91.84 18.41 91.37 19.12 90.28 19.12C89.73 19.12 88.79 18.8 88.79 17.39C88.79 15.59 90.28 15.04 91.61 15.04C91.84 15.04 92.31 15.04 92.31 15.04C92.31 15.04 92.39 14.97 92.39 14.65C92.39 14.18 91.92 14.1 91.37 14.1C90.36 14.1 89.65 14.42 89.65 14.42L89.89 13.09C89.89 13.09 90.67 12.77 91.77 12.77C92.31 12.77 93.88 12.85 93.88 14.73ZM91.77 16.22C90.59 16.22 90.36 16.77 90.36 17.16C90.36 17.39 90.51 17.78 90.98 17.78C91.92 17.78 92.08 16.53 92.08 16.3C92.08 16.3 92 16.3 91.77 16.22Z" />
		<path id="Path 1307" class="shp6" d="M95.37 19.12C95.76 19.12 97.72 19.19 97.72 17.08C97.72 15.12 95.84 15.51 95.84 14.73C95.84 14.34 96.15 14.18 96.7 14.18C96.93 14.18 97.8 14.26 97.8 14.26L98.03 12.85C98.03 12.85 97.48 12.69 96.54 12.69C95.37 12.69 94.19 13.16 94.19 14.73C94.19 16.53 96.15 16.37 96.15 17.08C96.15 17.55 95.6 17.63 95.21 17.63C94.51 17.63 93.8 17.39 93.8 17.39L93.57 18.8C93.65 18.96 94.04 19.12 95.37 19.12Z" />
		<path id="Path 1308" fill-rule="evenodd" class="shp6" d="M128.26 11.6L127.08 19.12L125.52 19.12L125.59 18.57C125.59 18.57 125.05 19.19 124.11 19.19C122.78 19.19 122.15 17.86 122.15 16.61C122.15 14.57 123.4 12.85 124.81 12.85C125.67 12.85 126.3 13.63 126.3 13.63L126.61 11.52L128.26 11.6ZM125.05 14.34C124.34 14.34 123.79 15.12 123.79 16.37C123.79 17.16 124.11 17.63 124.65 17.63C125.52 17.63 125.91 16.53 125.91 15.67C125.91 14.73 125.59 14.34 125.05 14.34Z" />
		<path id="Path 1309" class="shp6" d="M83.23 19.04L84.17 13.4L84.33 19.04L85.42 19.04L87.46 13.4L86.6 19.04L88.24 19.04L89.49 11.52L86.91 11.52L85.34 16.14L85.27 11.52L83 11.52L81.74 19.04L83.23 19.04Z" />
		<path id="Path 1310" class="shp6" d="M107.51 19.04C107.98 16.45 108.05 14.34 109.15 14.73C109.31 13.71 109.54 13.32 109.7 12.93C109.7 12.93 109.62 12.93 109.38 12.93C108.68 12.93 108.13 13.87 108.13 13.87L108.29 13.01L106.8 13.01L105.78 19.12L107.51 19.12L107.51 19.04Z" />
		<path id="Path 1311" fill-rule="evenodd" class="shp6" d="M119.33 14.73L118.7 19.04L117.29 19.04L117.37 18.41C117.29 18.41 116.82 19.12 115.73 19.12C115.18 19.12 114.24 18.8 114.24 17.39C114.24 15.59 115.73 15.04 117.06 15.04C117.29 15.04 117.76 15.04 117.76 15.04C117.76 15.04 117.84 14.97 117.84 14.65C117.84 14.18 117.37 14.1 116.82 14.1C115.81 14.1 115.1 14.42 115.1 14.42L115.34 13.09C115.34 13.09 116.12 12.77 117.22 12.77C117.76 12.77 119.41 12.85 119.33 14.73ZM117.29 16.22C116.12 16.22 115.88 16.77 115.88 17.16C115.88 17.39 116.04 17.78 116.51 17.78C117.45 17.78 117.61 16.53 117.61 16.3C117.53 16.3 117.53 16.3 117.29 16.22Z" />
		<path id="Path 1312" class="shp6" d="M120.66 19.04C121.13 16.45 121.21 14.34 122.31 14.73C122.46 13.71 122.7 13.32 122.85 12.93C122.85 12.93 122.78 12.93 122.54 12.93C121.84 12.93 121.29 13.87 121.29 13.87L121.44 13.01L119.96 13.01L118.94 19.12L120.66 19.12L120.66 19.04Z" />
		<path id="Path 1313" class="shp7" d="M97.95 17.86C97.95 18.8 98.5 19.19 99.2 19.19C99.75 19.19 100.22 19.04 100.38 18.96L100.61 17.63C100.54 17.63 100.38 17.71 100.22 17.71C99.67 17.71 99.6 17.39 99.67 17.24L100.14 14.5L101.01 14.5L101.24 13.01L100.46 13.01L100.61 12.07" />
		<path id="Path 1314" fill-rule="evenodd" class="shp7" d="M103.75 12.93C105.47 12.93 106.02 14.18 106.02 15.2C106.02 15.59 105.78 16.61 105.78 16.61L102.57 16.61C102.57 16.61 102.26 17.86 103.98 17.86C104.76 17.86 105.63 17.47 105.63 17.47L105.31 18.96C105.31 18.96 104.84 19.19 103.67 19.19C102.41 19.19 101.71 18.65 101.71 16.45C101.71 14.5 102.1 12.77 103.75 12.93ZM102.65 15.28L104.69 15.28C104.69 15.2 104.53 14.18 103.67 14.18C102.81 14.18 102.65 15.2 102.65 15.28Z" />
		<path id="Path 1315" class="shp7" d="M113.61 18.96L113.93 17.24C113.93 17.24 113.14 17.63 112.6 17.63C111.5 17.63 111.03 16.77 111.03 15.83C111.03 13.95 111.97 12.93 113.06 12.93C113.85 12.93 114.47 13.4 114.47 13.4L114.71 11.75C114.71 11.75 113.77 11.36 112.91 11.36C111.11 11.36 110.09 12.93 110.09 15.9C110.09 17.86 110.25 19.19 112.13 19.19C112.75 19.19 113.61 18.96 113.61 18.96Z" />
		<path id="Path 1316" fill-rule="evenodd" class="shp7" d="M91.69 12.93C92.31 12.93 93.88 13.01 93.88 14.81L93.25 19.12L91.84 19.12L91.92 18.49C91.84 18.49 91.37 19.19 90.28 19.19C89.73 19.19 88.79 18.88 88.79 17.47C88.79 15.67 90.28 15.12 91.61 15.12C91.84 15.12 92.31 15.12 92.31 15.12C92.31 15.12 92.39 15.04 92.39 14.73C92.39 14.26 91.92 14.18 91.37 14.18C90.36 14.18 89.65 14.5 89.65 14.5M91.77 16.22C90.59 16.22 90.36 16.77 90.36 17.16C90.36 17.39 90.51 17.78 90.98 17.78C91.92 17.78 92.86 16.53 92.86 16.3C92.86 16.3 92 16.3 91.77 16.22Z" />
		<path id="Path 1317" class="shp7" d="M93.65 18.96C93.65 18.96 94.12 19.12 95.45 19.12C95.84 19.12 97.8 19.19 97.8 17.08C97.8 15.12 95.92 15.51 95.92 14.73C95.92 14.34 96.23 14.18 96.78 14.18C97.01 14.18 97.87 14.26 97.87 14.26L98.11 12.85C98.11 12.85 97.56 12.69 96.62 12.69C95.45 12.69 95.05 13.16 95.05 14.73C95.05 16.53 96.23 16.37 96.23 17.08C96.23 17.55 95.68 17.63 95.29 17.63" />
		<path id="Path 1318" fill-rule="evenodd" class="shp7" d="M128.26 11.6L127.08 19.12L125.52 19.12L125.59 18.57C125.59 18.57 125.05 19.19 124.11 19.19C122.78 19.19 122.93 17.86 122.93 16.61C122.93 14.57 123.4 12.85 124.81 12.85C125.67 12.85 126.3 13.63 126.3 13.63M125.05 14.34C124.34 14.34 123.79 15.12 123.79 16.37C123.79 17.16 124.11 17.63 124.65 17.63C125.52 17.63 126.22 16.53 126.22 15.67C126.22 14.73 125.59 14.34 125.05 14.34Z" />
		<path id="Path 1319" class="shp7" d="M83.23 19.04L84.17 13.4L84.33 19.04L85.42 19.04L87.46 13.4L86.6 19.04L88.24 19.04L89.49 11.52L87.54 11.52L85.34 16.14L85.27 11.52L84.4 11.52L81.74 19.04L83.23 19.04Z" />
		<path id="Path 1320" class="shp7" d="M105.86 19.04L107.51 19.04C107.98 16.45 108.05 14.34 109.15 14.73C109.31 13.71 109.54 13.32 109.7 12.93C109.7 12.93 109.62 12.93 109.38 12.93C108.68 12.93 108.13 13.87 108.13 13.87L108.29 13.01" />
		<path id="Path 1323" fill-rule="evenodd" class="shp8" d="M29.23 6.5L26.3 24.77L21.61 24.77L24.54 6.5L29.23 6.5ZM42.64 18.76C42.6 22.43 39.39 24.8 34.47 24.8C32.37 24.78 30.34 24.35 29.24 23.86L29.89 19.89L30.51 20.17C32.04 20.83 33.04 21.11 34.91 21.11C36.26 21.11 37.71 20.57 37.73 19.38C37.73 18.61 37.11 18.05 35.3 17.18C33.52 16.33 31.15 14.92 31.19 12.38C31.21 8.93 34.47 6.52 39.1 6.52C40.92 6.52 42.39 6.92 43.32 7.28L42.68 11.1L42.25 10.91C41.4 10.55 40.28 10.19 38.76 10.23C36.9 10.23 36.07 11 36.05 11.76C36.05 12.59 37.06 13.13 38.7 13.94C41.4 15.2 42.65 16.75 42.64 18.76ZM59.13 24.78L54.78 24.78L54.08 21.14L48.57 21.14L47.22 24.77L42.29 24.77L49.26 8.03C49.75 6.88 50.6 6.56 51.71 6.56L55.34 6.56L59.13 24.78ZM49.94 17.49C49.94 17.49 49.94 17.49 49.94 17.49C49.94 17.49 49.94 17.49 49.94 17.49ZM49.94 17.49C50.87 17.49 53.26 17.49 53.26 17.49L51.83 11.57C51.83 11.57 50.04 17.48 49.94 17.49ZM17.69 6.5L22.65 6.5L15.28 24.75L10.31 24.75L6.1 9.05C9.07 10.57 11.74 13.64 12.59 16.46L13.09 18.91L17.69 6.5L17.69 6.5Z" />
		<path id="Path 1324" class="shp9" d="M11.04 8.86C10.69 7.46 9.54 6.52 7.99 6.5L0.71 6.5L0.63 6.84C6.31 8.24 11.08 12.55 12.63 16.6L11.04 8.86Z" />
	</g>
</svg>