<svg id="web-page-home" xmlns="http://www.w3.org/2000/svg" width="30.87" height="27.529" viewBox="0 0 30.87 27.529">
  <g id="Group_8" data-name="Group 8" transform="translate(0 0)">
    <path id="Path_14" data-name="Path 14" d="M1.066,42.747H3.581V52.8a1.081,1.081,0,0,0,1.078,1.078h7.364A1.081,1.081,0,0,0,13.1,52.8V45.441h4.49V52.8a1.081,1.081,0,0,0,1.078,1.078h7A1.081,1.081,0,0,0,26.75,52.8V42.747H29.8a1.073,1.073,0,0,0,.754-1.832L16.512,26.672A1.073,1.073,0,0,0,15,26.654L.33,40.9a1.078,1.078,0,0,0-.251,1.185A1.051,1.051,0,0,0,1.066,42.747ZM15.722,28.953,27.217,40.592H25.672a1.081,1.081,0,0,0-1.078,1.078V51.727H19.745V44.363a1.081,1.081,0,0,0-1.078-1.078H12.022a1.081,1.081,0,0,0-1.078,1.078v7.364H5.736V41.669a1.081,1.081,0,0,0-1.078-1.078H3.725Z" transform="translate(0 -26.353)" fill="#8c3bfa"/>
  </g>
</svg>
